<?xml version="1.0" encoding="utf-8"?>
<!-- Generator: Adobe Illustrator 16.0.0, SVG Export Plug-In . SVG Version: 6.00 Build 0)  -->
<!DOCTYPE svg PUBLIC "-//W3C//DTD SVG 1.1//EN" "http://www.w3.org/Graphics/SVG/1.1/DTD/svg11.dtd">
<svg version="1.1" id="Layer_1" xmlns="http://www.w3.org/2000/svg" xmlns:xlink="http://www.w3.org/1999/xlink" x="0px" y="0px"
	 width="260px" height="260px" viewBox="0 0 260 260" enable-background="new 0 0 260 260" xml:space="preserve">
<g>
	<polygon fill="#F68B21" points="111.365,76.836 148.92,98.491 111.365,120.189 111.365,76.836 	"/>
	<polygon fill="none" points="111.365,76.836 148.92,98.491 111.365,120.189 111.365,76.836 	"/>
	<polyline fill="none" points="111.365,76.836 148.92,98.491 111.365,120.189 111.365,76.836 	"/>
	<polygon fill="#EF4132" points="111.365,120.189 148.92,98.491 148.92,141.845 111.365,120.189 	"/>
	<polygon fill="none" points="111.365,120.189 148.92,98.491 148.92,141.845 111.365,120.189 	"/>
	<polyline fill="none" points="111.365,120.189 148.92,98.491 148.92,141.845 	"/>
	<polygon fill="#941D3F" points="148.92,185.239 111.365,163.543 148.92,141.845 148.92,185.239 	"/>
	<polygon fill="none" points="148.92,185.239 111.365,163.543 148.92,141.845 148.92,185.239 	"/>
	<polygon fill="#C41E53" points="148.92,141.845 111.365,163.543 111.365,120.189 148.92,141.845 	"/>
	<polygon fill="none" points="148.92,141.845 111.365,163.543 111.365,120.189 148.92,141.845 	"/>
	<polygon fill="#EF4132" points="148.92,185.239 111.365,206.896 111.365,163.543 148.92,185.239 	"/>
	<polygon fill="none" points="148.92,185.239 111.365,206.896 111.365,163.543 148.92,185.239 	"/>
	<polygon fill="#F68B21" points="111.365,206.896 73.767,185.239 111.365,163.543 111.365,206.896 	"/>
	<polygon fill="none" points="111.365,206.896 73.767,185.239 111.365,163.543 111.365,206.896 	"/>
	<polygon fill="#FFC929" points="111.365,163.543 73.767,185.239 73.767,141.845 111.365,163.543 	"/>
	<polygon fill="none" points="111.365,163.543 73.767,185.239 73.767,141.845 111.365,163.543 	"/>
	<polygon fill="#EF4132" points="148.92,141.845 186.518,163.543 186.518,120.189 148.92,141.845 	"/>
	<polygon fill="none" points="148.92,141.845 186.518,163.543 186.518,120.189 148.92,141.845 	"/>
	<polygon fill="#C41E53" points="111.365,76.836 148.92,98.491 148.92,55.138 111.365,76.836 	"/>
	<polygon fill="none" points="111.365,76.836 148.92,98.491 148.92,55.138 111.365,76.836 	"/>
	<polygon fill="#941D3F" points="148.92,98.491 186.518,76.836 148.92,55.138 148.92,98.491 	"/>
	<polygon fill="none" points="148.92,98.491 186.518,76.836 148.92,55.138 148.92,98.491 	"/>
</g>
</svg>
