<?xml version="1.0" encoding="utf-8"?>
<!-- Generator: Adobe Illustrator 16.0.0, SVG Export Plug-In . SVG Version: 6.00 Build 0)  -->
<!DOCTYPE svg PUBLIC "-//W3C//DTD SVG 1.1//EN" "http://www.w3.org/Graphics/SVG/1.1/DTD/svg11.dtd">
<svg version="1.1" id="Layer_1" xmlns="http://www.w3.org/2000/svg" xmlns:xlink="http://www.w3.org/1999/xlink" x="0px" y="0px"
	 width="222px" height="168px" viewBox="0 0 222 168" enable-background="new 0 0 222 168" xml:space="preserve">
<g>
	<polygon fill="#F68B21" points="93.295,32.915 128.705,53.333 93.295,73.791 93.295,32.915 	"/>
	<polygon fill="none" points="93.295,32.915 128.705,53.333 93.295,73.791 93.295,32.915 	"/>
	<polyline fill="none" points="93.295,32.915 128.705,53.333 93.295,73.791 93.295,32.915 	"/>
	<polygon fill="#EF4132" points="93.295,73.791 128.705,53.333 128.705,94.211 93.295,73.791 	"/>
	<polygon fill="none" points="93.295,73.791 128.705,53.333 128.705,94.211 93.295,73.791 	"/>
	<polyline fill="none" points="93.295,73.791 128.705,53.333 128.705,94.211 	"/>
	<polygon fill="#941D3F" points="128.705,135.125 93.295,114.668 128.705,94.211 128.705,135.125 	"/>
	<polygon fill="none" points="128.705,135.125 93.295,114.668 128.705,94.211 128.705,135.125 	"/>
	<polygon fill="#C41E53" points="128.705,94.211 93.295,114.668 93.295,73.791 128.705,94.211 	"/>
	<polygon fill="none" points="128.705,94.211 93.295,114.668 93.295,73.791 128.705,94.211 	"/>
	<polygon fill="#EF4132" points="128.705,135.125 93.295,155.545 93.295,114.668 128.705,135.125 	"/>
	<polygon fill="none" points="128.705,135.125 93.295,155.545 93.295,114.668 128.705,135.125 	"/>
	<polygon fill="#F68B21" points="93.295,155.545 57.846,135.125 93.295,114.668 93.295,155.545 	"/>
	<polygon fill="none" points="93.295,155.545 57.846,135.125 93.295,114.668 93.295,155.545 	"/>
	<polygon fill="#FFC929" points="93.295,114.668 57.846,135.125 57.846,94.211 93.295,114.668 	"/>
	<polygon fill="none" points="93.295,114.668 57.846,135.125 57.846,94.211 93.295,114.668 	"/>
	<polygon fill="#EF4132" points="128.705,94.211 164.154,114.668 164.154,73.791 128.705,94.211 	"/>
	<polygon fill="none" points="128.705,94.211 164.154,114.668 164.154,73.791 128.705,94.211 	"/>
	<polygon fill="#C41E53" points="93.295,32.915 128.705,53.333 128.705,12.456 93.295,32.915 	"/>
	<polygon fill="none" points="93.295,32.915 128.705,53.333 128.705,12.456 93.295,32.915 	"/>
	<polygon fill="#941D3F" points="128.705,53.333 164.154,32.915 128.705,12.456 128.705,53.333 	"/>
	<polygon fill="none" points="128.705,53.333 164.154,32.915 128.705,12.456 128.705,53.333 	"/>
</g>
</svg>
